<svg width="643" height="99" viewBox="0 0 643 99" fill="none" xmlns="http://www.w3.org/2000/svg">
<g clip-path="url(#clip0_38_102)">
<path d="M60.0701 87.09C60.0701 91.01 56.7701 94.31 52.8501 94.31C48.9301 94.31 45.6101 91.01 45.6101 87.09C45.6101 83.17 48.9101 79.85 52.8501 79.85C56.7901 79.85 60.0701 83.04 60.0701 87.09Z" fill="#3347F3"/>
<path d="M105.33 94.31H81.24L52.85 43.61L24.59 94.31H0.5L52.85 0.5L105.33 94.31Z" fill="#3347F3"/>
<path d="M106.97 74.69C100.87 58.16 111.17 38.82 129.96 31.89C148.75 24.96 169.23 33.22 175.5 50.22L176.82 53.79L129.76 67.23L155.24 52.43C151.97 47.96 144.27 44.31 136.19 47.3C126.8 50.77 121.55 59.99 124.67 68.44C127.26 75.46 136.71 80.21 146.94 76.44C154.08 73.81 157.4 68.53 158.4 64.65L177.26 61.21C176.65 74.95 166.25 87.03 152.69 92.03C133.54 99.09 113.12 91.35 106.98 74.7L106.97 74.69Z" fill="black"/>
<path d="M571.77 74.69C565.67 58.16 575.97 38.82 594.76 31.89C613.43 25 634.03 33.22 640.3 50.22L641.62 53.79L594.56 67.23L620.04 52.43C616.77 47.96 609.07 44.31 600.99 47.3C591.6 50.77 586.35 59.99 589.47 68.44C592.06 75.46 601.51 80.21 611.74 76.44C618.88 73.81 622.2 68.53 623.2 64.65L642.06 61.21C641.45 74.95 631.05 87.03 617.49 92.03C598.34 99.09 577.92 91.35 571.78 74.7L571.77 74.69Z" fill="black"/>
<path d="M170.62 30.29H194.83L209.53 46.89L224.23 30.29H248.31L221.44 62.49L248.31 94.56H224.23L209.53 77.96L194.83 94.56H170.62L197.62 62.49L170.62 30.29Z" fill="black"/>
<path d="M285.85 29.91C296.88 29.91 305.24 35.36 308.92 38.15V29.91H323.5V94.18H308.92V85.69C305.12 88.6 296.62 94.18 285.6 94.18C265.06 94.18 249.35 79.48 249.35 62.36C249.35 44.36 265.7 29.91 285.86 29.91H285.85ZM285.85 77.7C295.48 77.7 304.23 71.11 304.23 62.11C304.23 53.11 295.48 46.39 285.85 46.39C276.22 46.39 267.85 53.49 267.85 62.24C267.85 70.99 276.09 77.7 285.85 77.7Z" fill="black"/>
<path d="M331.49 30.04H350.76L363.18 64.14L378.52 37.9L393.73 64.14L406.15 30.04H425.54L399.93 98.62L378.38 63.38L357.08 98.62L331.47 30.04H331.49Z" fill="black"/>
<path d="M464.73 29.91C475.76 29.91 484.12 35.36 487.8 38.15V29.91H502.38V94.18H487.8V85.69C484 88.6 475.5 94.18 464.48 94.18C443.94 94.18 428.23 79.48 428.23 62.36C428.23 44.36 444.58 29.91 464.74 29.91H464.73ZM464.73 77.7C474.36 77.7 483.11 71.11 483.11 62.11C483.11 53.11 474.36 46.39 464.73 46.39C455.1 46.39 446.73 53.49 446.73 62.24C446.73 70.99 454.97 77.7 464.73 77.7Z" fill="black"/>
<path d="M517.97 55.64C517.97 41.06 529 30.04 542.69 30.04H565.25V46.52C563.22 46.64 557.39 46.64 555.36 46.64C545.47 46.64 538.25 51.97 538.25 63.12V94.05H518.1C518.1 80.36 517.97 69.33 517.97 55.64Z" fill="black"/>
</g>
<defs>
<clipPath id="clip0_38_102">
<rect width="641.54" height="98.12" fill="white" transform="translate(0.5 0.5)"/>
</clipPath>
</defs>
</svg>
