<?xml version="1.0" standalone="no"?>
<!DOCTYPE svg PUBLIC "-//W3C//DTD SVG 1.1//EN" "http://www.w3.org/Graphics/SVG/1.1/DTD/svg11.dtd">
<svg xmlns="http://www.w3.org/2000/svg" id="Layer_2" viewBox="0 0 641.54 98.12" width="641.5399780273438" height="98.12000274658203">
  <defs>
    <style>
      .cls-1 {
        fill: #3347f3;
      }

      .cls-2 {
        fill: #fff;
      }
    </style>
  </defs>
  <g id="Layer_1-2" data-name="Layer_1">
    <g>
      <path class="cls-1" d="M59.57,86.59c0,3.92-3.3,7.22-7.22,7.22s-7.24-3.3-7.24-7.22,3.3-7.24,7.24-7.24,7.22,3.19,7.22,7.24Z"/>
      <polygon class="cls-1" points="104.83 93.81 80.74 93.81 52.35 43.11 24.09 93.81 0 93.81 52.35 0 104.83 93.81"/>
      <path class="cls-2" d="M106.47,74.19c-6.1-16.53,4.2-35.87,22.99-42.8s39.27,1.33,45.54,18.33l1.32,3.57-47.06,13.44,25.48-14.8c-3.27-4.47-10.97-8.12-19.05-5.13-9.39,3.47-14.64,12.69-11.52,21.14,2.59,7.02,12.04,11.77,22.27,8,7.14-2.63,10.46-7.91,11.46-11.79l18.86-3.44c-.61,13.74-11.01,25.82-24.57,30.82-19.15,7.06-39.57-.68-45.71-17.33Z"/>
      <path class="cls-2" d="M571.27,74.19c-6.1-16.53,4.2-35.87,22.99-42.8,18.67-6.89,39.27,1.33,45.54,18.33l1.32,3.57-47.06,13.44,25.48-14.8c-3.27-4.47-10.97-8.12-19.05-5.13-9.39,3.47-14.64,12.69-11.52,21.14,2.59,7.02,12.04,11.77,22.27,8,7.14-2.63,10.46-7.91,11.46-11.79l18.86-3.44c-.61,13.74-11.01,25.82-24.57,30.82-19.15,7.06-39.57-.68-45.71-17.33Z"/>
      <path class="cls-2" d="M170.12,29.79h24.21l14.7,16.6,14.7-16.6h24.08l-26.87,32.2,26.87,32.07h-24.08l-14.7-16.6-14.7,16.6h-24.21l27-32.07-27-32.2Z"/>
      <path class="cls-2" d="M285.35,29.41c11.03,0,19.39,5.45,23.07,8.24v-8.24h14.58v64.27h-14.58v-8.49c-3.8,2.91-12.3,8.49-23.32,8.49-20.54,0-36.25-14.7-36.25-31.82,0-18,16.35-32.45,36.51-32.45ZM285.35,77.2c9.63,0,18.38-6.59,18.38-15.59s-8.75-15.72-18.38-15.72-18,7.1-18,15.85,8.24,15.46,18,15.46Z"/>
      <path class="cls-2" d="M330.99,29.54h19.27l12.42,34.1,15.34-26.24,15.21,26.24,12.42-34.1h19.39l-25.61,68.58-21.55-35.24-21.3,35.24-25.61-68.58Z"/>
      <path class="cls-2" d="M464.23,29.41c11.03,0,19.39,5.45,23.07,8.24v-8.24h14.58v64.27h-14.58v-8.49c-3.8,2.91-12.3,8.49-23.32,8.49-20.54,0-36.25-14.7-36.25-31.82,0-18,16.35-32.45,36.51-32.45ZM464.23,77.2c9.63,0,18.38-6.59,18.38-15.59s-8.75-15.72-18.38-15.72-18,7.1-18,15.85,8.24,15.46,18,15.46Z"/>
      <path class="cls-2" d="M517.47,55.14c0-14.58,11.03-25.6,24.72-25.6h22.56v16.48c-2.03.12-7.86.12-9.89.12-9.89,0-17.11,5.33-17.11,16.48v30.93h-20.15c0-13.69-.13-24.72-.13-38.41Z"/>
    </g>
  </g>
</svg>